<svg id="Capa_1" enable-background="new 0 0 512 512" height="512" viewBox="0 0 512 512" width="512"
  xmlns="http://www.w3.org/2000/svg">
  <g>
    <path
      d="m427.192 129.63c-.29-71.527-58.565-129.63-130.159-129.63h-82.066c-71.599 0-129.876 58.109-130.16 129.643-.028.376-.057 89.676-.057 89.676 0 70.788 27.566 137.339 77.621 187.394 11.556 11.555 24 21.896 37.163 30.992v74.295h30v-56.374c16.852 8.596 34.581 15.333 52.932 20.116v36.258h30v-30.271c12.254 1.716 24.707 2.605 37.299 2.605h77.485c0-.001-.029-354.327-.058-354.704zm-243.608 255.869c-44.388-44.388-68.834-103.406-68.834-166.18v-6.179c23.895 28.811 59.949 47.194 100.217 47.194h6.502v33.219c0 64.445 32.125 121.523 81.197 156.079-44.816-9.069-86.011-31.062-119.082-64.133zm125.626-354.757-53.21 40.463-53.21-40.463c3.993-.486 8.055-.742 12.177-.742h82.066c4.122 0 8.185.256 12.177.742zm-141.41 11.081 88.2 67.071 88.2-67.071c31.514 16.894 52.999 50.155 52.999 88.344 0 55.232-44.935 100.167-100.166 100.167h-82.066c-55.231 0-100.166-44.935-100.166-100.167 0-38.189 21.485-71.451 52.999-88.344zm83.669 251.729v-33.219h45.564c40.268 0 76.322-18.382 100.217-47.194v240.5c-81.647-7.591-145.781-76.491-145.781-160.087z" />
    <path d="m154.646 117.333h30v30h-30z" />
    <path d="m327.353 117.333h30v30h-30z" />
    <path
      d="m341.383 309.333c0 8.293-6.747 15.04-15.04 15.04s-15.04-6.747-15.04-15.04h-30c0 24.835 20.205 45.04 45.04 45.04s45.04-20.205 45.04-45.04z" />
    <path d="m241 138.667h30v64h-30z" />
  </g>
</svg>
